<?xml version="1.0" standalone="no"?>
<!DOCTYPE svg PUBLIC "-//W3C//DTD SVG 20010904//EN"
 "http://www.w3.org/TR/2001/REC-SVG-20010904/DTD/svg10.dtd">
<svg version="1.0" xmlns="http://www.w3.org/2000/svg"
 width="32px" height="32px" viewBox="0 0 222.000000 234.000000"
 preserveAspectRatio="xMidYMid meet">

<g transform="translate(0.000000,234.000000) scale(0.100000,-0.100000)"
 fill="#a65050" stroke="none">
<path d="M663 1395 c-35 -24 -48 -77 -28 -118 22 -47 413 -434 448 -442 52
-13 79 5 231 152 288 278 286 276 286 318 0 50 -44 95 -94 95 -42 0 -105 -52
-281 -229 l-109 -111 -176 175 c-169 168 -178 175 -216 175 -22 0 -49 -7 -61
-15z"/>
</g>
</svg>

