<svg version="1.0" xmlns="http://www.w3.org/2000/svg"
 width="32px" height="32px" viewBox="0 0 512.000000 512.000000"
 preserveAspectRatio="xMidYMid meet">

<g transform="translate(0.000000,512.000000) scale(0.100000,-0.100000)"
 fill="#a65050" stroke="none">
<path d="M2455 4686 c-27 -13 -62 -36 -77 -52 -15 -16 -156 -290 -314 -609
-157 -319 -287 -581 -288 -582 -2 -2 -286 -44 -632 -93 -346 -50 -649 -98
-673 -107 -133 -48 -198 -222 -132 -350 12 -24 199 -214 486 -492 421 -410
465 -456 461 -480 -3 -14 -53 -300 -111 -636 -79 -456 -104 -621 -99 -655 10
-72 50 -135 112 -177 52 -36 58 -38 136 -38 l81 0 578 304 577 303 483 -253
c746 -391 680 -359 738 -359 29 0 69 5 91 12 49 14 123 78 147 127 39 76 37
92 -74 736 -58 336 -108 622 -110 636 -5 23 43 72 460 478 295 287 473 467
486 493 66 129 1 303 -132 351 -24 9 -327 57 -673 107 -346 49 -630 91 -631
93 -2 1 -131 263 -289 582 -158 319 -299 593 -314 609 -41 44 -118 76 -182 76
-37 0 -71 -8 -105 -24z m380 -887 c147 -298 281 -556 296 -574 55 -62 87 -69
716 -161 323 -47 591 -89 595 -92 3 -4 -193 -201 -437 -439 -480 -468 -475
-462 -475 -570 0 -24 45 -305 100 -624 56 -320 99 -583 97 -585 -2 -2 -239
-119 -526 -271 -517 -272 -586 -305 -639 -305 -57 0 -120 -30 -635 -301 -291 -154
-532 -278 -534 -276 -2 3 42 265 97 585 55 319 100 600 100 624 0 99 -13 117
-268 369 -130 129 -331 326 -445 437 -129 125 -204 204 -195 207 7 3 276 43
597 90 623 91 656 99 710 160 15 18 149 276 296 574 148 297 271 541 275 541
4 0 127 -244 275 -541z">
</path>
</g>
</svg>