<?xml version="1.0" standalone="no"?>
<!DOCTYPE svg PUBLIC "-//W3C//DTD SVG 20010904//EN"
 "http://www.w3.org/TR/2001/REC-SVG-20010904/DTD/svg10.dtd">
<svg version="1.0" xmlns="http://www.w3.org/2000/svg"
 width="473.000000pt" height="528.000000pt" viewBox="0 0 473.000000 528.000000"
 preserveAspectRatio="xMidYMid meet">

<g transform="translate(0.000000,528.000000) scale(0.100000,-0.100000)"
fill="#000000" stroke="none">
<path d="M2252 5045 c-131 -29 -117 -17 -1084 -980 -778 -774 -909 -909 -936
-961 -103 -199 -76 -468 63 -621 l43 -48 206 3 206 4 0 -839 c0 -529 4 -854
11 -882 27 -119 137 -260 242 -310 98 -47 131 -51 494 -51 l343 0 32 29 33 29
5 574 c5 565 5 574 27 614 28 52 90 108 139 125 56 20 522 20 578 0 53 -18
115 -77 140 -131 20 -44 21 -63 26 -613 l5 -569 33 -29 32 -29 338 0 c373 0
405 4 514 62 110 58 204 189 228 317 6 34 10 359 10 879 l0 825 199 -6 c216
-6 216 -6 268 53 134 152 150 459 33 639 -37 57 -1812 1830 -1861 1860 -100
59 -253 82 -367 56z m231 -231 c48 -25 1802 -1776 1827 -1825 42 -81 44 -218
5 -301 l-18 -36 -192 6 c-224 6 -281 -3 -320 -50 l-25 -30 0 -901 0 -902 -24
-51 c-28 -61 -92 -117 -149 -133 -28 -8 -126 -11 -297 -9 l-255 3 -5 515 c-5
459 -7 520 -23 559 -54 136 -157 234 -294 280 -57 19 -85 21 -347 21 -251 0
-291 -2 -345 -19 -169 -52 -295 -202 -321 -378 -5 -38 -10 -274 -10 -525 l0
-458 -267 0 c-299 0 -315 3 -382 71 -75 75 -71 9 -71 1014 0 695 -3 906 -13
924 -6 14 -28 34 -47 45 -33 20 -51 21 -257 20 l-222 0 -16 35 c-42 95 -37
222 11 310 19 35 278 300 899 920 973 972 920 925 1050 918 43 -2 85 -11 108
-23z"/>
</g>
</svg>
